<svg width="23" height="22" viewBox="0 0 23 22" fill="none" xmlns="http://www.w3.org/2000/svg">
<path d="M5.21578 7.14935H0.275715V21.9999H5.21578V7.14935Z" fill="black"/>
<path d="M21.4376 8.50568C20.4036 7.37925 19.025 6.80453 17.3247 6.80453C16.7043 6.80453 16.1299 6.8735 15.6014 7.03442C15.0959 7.19534 14.6593 7.40224 14.2917 7.6781C13.947 7.95396 13.6483 8.20683 13.4416 8.45971C13.2348 8.68959 13.0509 8.94247 12.8671 9.24132V7.12637H7.95004L7.97302 7.83902C7.97302 8.32178 7.996 9.79304 7.996 12.2758C7.996 14.7586 7.996 17.9769 7.97302 21.9769H12.8901V13.7011C12.8901 13.1953 12.9361 12.7815 13.0509 12.4827C13.2577 11.9769 13.5794 11.5402 13.993 11.1953C14.4066 10.8505 14.9351 10.6896 15.5784 10.6896C16.4286 10.6896 17.0719 10.9884 17.4625 11.5861C17.8761 12.1838 18.0599 13.0114 18.0599 14.0459V21.9769H22.977V13.4712C23 11.2873 22.4945 9.63212 21.4376 8.50568Z" fill="black"/>
<path d="M2.78022 0C1.95305 0 1.28671 0.252874 0.781219 0.735632C0.252747 1.21839 0 1.81609 0 2.55172C0 3.28736 0.252747 3.88506 0.758242 4.39081C1.26374 4.87356 1.90709 5.12644 2.73427 5.12644H2.75724C3.60739 5.12644 4.27373 4.87356 4.77922 4.39081C5.28472 3.90805 5.53746 3.28736 5.53746 2.55172C5.53746 1.81609 5.26174 1.1954 4.77922 0.712644C4.27373 0.252874 3.60739 0 2.78022 0Z" fill="black"/>
</svg>
